<svg xmlns="http://www.w3.org/2000/svg" width="64" height="64" viewBox="0 0 64 64" fill="none"><g clip-path="url(#clip0_614_3069)"><path d="M58.8997 54.427C59.1855 51.9043 60.5045 49.5651 62.5549 48.0267L61.315 46.375C60.3448 47.1029 59.5202 47.9864 58.8387 48.9653V44.1044H56.7742V48.9653C56.0927 47.9864 55.2682 47.1039 54.2979 46.375L53.058 48.0267C55.1084 49.5651 56.4274 51.9043 56.7132 54.427H48.5161V44.1044H46.4516V54.427H44.3871V45.1366H42.3226V54.427H33.5847L32.9713 53.5071C32.063 52.1437 30.5423 51.3302 28.9032 51.3302C27.2641 51.3302 25.7435 52.1437 24.8352 53.5071L24.4718 54.0509C24.1527 54.5313 23.3432 54.5096 23.0484 54.0172L21.6477 51.681C20.7525 50.1916 19.1185 49.2657 17.38 49.2657C15.8594 49.2657 14.4436 49.9456 13.4924 51.1331L10.8594 54.427H8.32006C8.60585 51.9043 9.9254 49.5651 11.9753 48.0267L10.7354 46.375C9.76411 47.1029 8.93952 47.9864 8.25807 48.9653V44.1044H6.19355V48.9653C5.5121 47.9864 4.6875 47.1039 3.71724 46.375L2.47732 48.0267C4.52772 49.5651 5.84677 51.9043 6.13256 54.427H0V56.4915H64V54.427H58.8997ZM28.9032 53.3947C29.7485 53.3947 30.5257 53.7858 31.0595 54.427H26.747C27.2807 53.7858 28.058 53.3947 28.9032 53.3947ZM15.1048 52.4234C15.6613 51.7284 16.4904 51.3302 17.38 51.3302C18.3967 51.3302 19.3538 51.871 19.877 52.7445L20.8866 54.427H13.502L15.1048 52.4234Z" fill="#222222"></path><path d="M4.62109 40.4914C5.86908 39.4919 7.43511 38.943 9.03289 38.943C10.92 38.943 12.6942 39.6779 14.0278 41.0115L15.4795 42.4632C17.2033 44.1869 19.4961 45.1365 21.9341 45.1365H24.7738V43.072H21.9341C20.047 43.072 18.2728 42.3371 16.9391 41.0035L15.4875 39.5519C14.8827 38.947 14.2048 38.4435 13.478 38.0367L16.4064 32.1784L14.5596 31.2545L12.2854 35.8039C11.3288 33.7993 11.2607 31.4531 12.1594 29.3603L12.3031 29.0272L10.4059 28.2126L10.2622 28.5458C9.07523 31.3094 9.24156 34.4153 10.608 37.0206C10.0929 36.9319 9.56767 36.8785 9.03289 36.8785C6.96837 36.8785 4.94317 37.5887 3.33077 38.879L0.386719 41.2333L1.67704 42.8457L4.62109 40.4914Z" fill="#222222"></path><path d="M61.9983 14.6547C59.3526 16.7722 56.0956 18.0212 52.7276 18.2505C52.1989 19.2868 51.4519 20.1961 50.5567 20.9476L50.5804 20.9466C50.5804 24.6719 48.2694 28.0071 44.781 29.315L35.2513 32.8886C34.467 33.183 33.6349 33.3337 32.7967 33.3337C28.9363 33.3337 25.8062 30.2036 25.8062 26.3432C25.8062 23.0842 27.7921 20.1547 30.8188 18.9471L32.4479 18.2979H29.9353C26.7568 18.2979 24.6953 17.2686 22.2069 15.4899L21.219 14.7838C19.7085 13.7061 17.9302 13.1366 16.0754 13.1366C11.1958 13.1366 7.22559 17.1063 7.22559 21.9859V22.5519C7.22559 25.3906 8.60059 28.0756 10.9045 29.7334L27.7407 41.8548C31.6591 44.6769 36.2836 46.1688 41.1137 46.1688C53.7332 46.1688 63.9998 35.9017 63.9998 23.2828V13.0509L61.9983 14.6547Z" fill="#F9DF8A"></path><path d="M13.4189 23.4592H15.4835V25.5237H13.4189V23.4592Z" fill="#222222"></path><path d="M56.7744 7.48389L30.4372 17.9879C26.9967 19.3599 24.7744 22.6406 24.7744 26.3433C24.7744 30.7677 28.3727 34.3659 32.7971 34.3659C33.7623 34.3659 34.7099 34.1936 35.6141 33.8549L45.1439 30.2813C48.8621 28.8866 51.4004 25.367 51.5935 21.4274C53.3661 19.7823 54.4972 17.5071 54.6812 15.0202C56.0032 13.3453 56.7744 11.2435 56.7744 9.00758V7.48389ZM47.4861 21.5444L35.7926 25.5802L36.4659 27.5323L48.159 23.4965C48.535 23.3664 48.8954 23.2092 49.2462 23.0378C48.5804 25.436 46.8142 27.4506 44.4181 28.3488L34.8883 31.9224C34.2175 32.1744 33.5133 32.3024 32.7981 32.3024C29.5123 32.3024 26.8399 29.629 26.8399 26.3443C26.8399 23.4909 28.5526 20.9642 31.2033 19.9073L54.5446 10.5983C53.9947 13.188 52.1252 15.3589 49.5516 16.248L37.8581 20.2838L38.5315 22.2359L50.2245 18.1996C50.845 17.9859 51.4281 17.7072 51.9785 17.3831C51.1353 19.2919 49.5456 20.8332 47.4861 21.5444Z" fill="#222222"></path></g><defs><clipPath id="clip0_614_3069"><rect width="64" height="64" fill="white"></rect></clipPath></defs></svg>