<svg xmlns="http://www.w3.org/2000/svg" width="64" height="64" viewBox="0 0 64 64" fill="none"><path d="M32.8 47.01C32.52 49.16 31.95 51.18 31.13 53H31C29.34 53 27.84 53.67 26.76 54.76C25.67 55.84 25 57.34 25 59C25 59 25.64 59 26.74 59C24.52 60.9 21.86 62 19 62C12.07 62 6.31 55.52 5.2 47.01C7.33 47.17 7.4 50 9.66 50C12 50 12 47 14.33 47C16.66 47 16.66 50 18.99 50C21.32 50 21.32 47 23.66 47C25.99 47 25.99 50 28.33 50C30.59 50 30.66 47.17 32.8 47.01Z" fill="#ACD2FD"></path><path d="M29 36C29.68 36 30.34 35.97 30.99 35.91L31 36L30.85 36.2C29.02 38.63 26.31 40.24 23.3 40.67C22.64 40.76 22.06 41.1 21.66 41.57C21.33 41.94 21.11 42.41 21.03 42.91H21C20.51 43.5 19.94 44 18.99 44C16.66 44 16.66 41 14.33 41C12 41 12 44 9.66 44C7.4 44 7.33 41.17 5.2 41.01C6.24 32.9 11.51 26.63 18 26.05L18.69 25.79C18.79 26.08 18.91 26.37 19.04 26.65C17.75 27.61 17 28.76 17 30C17 33.31 22.37 36 29 36Z" fill="#ACD2FD"></path><path d="M27 33C27.771 33 28.468 32.699 29 32.22C29.532 32.7 30.229 33 31 33C32.654 33 34 31.654 34 30H32C32 30.551 31.551 31 31 31C30.449 31 30 30.551 30 30V27H28V30C28 30.551 27.551 31 27 31C26.449 31 26 30.551 26 30H24C24 31.654 25.346 33 27 33Z" fill="#222222"></path><path d="M35 19H33V21H35V19Z" fill="#222222"></path><path d="M25 19H23V21H25V19Z" fill="#222222"></path><path d="M58.973 49.534C58.779 47.869 57.552 46.526 55.956 46.13C55.974 45.833 56 45.537 56 45.237V45.034C56 42.839 55.468 40.644 54.442 38.648C51.486 32.737 46.462 28.304 40.27 26.068C40.748 24.758 41 23.395 41 22C41 17.761 38.42 15.292 36.174 13.615C36.063 13.533 36 13.415 36 13.291C36 13.085 36.152 12.916 36.355 12.899C40.131 12.574 49.419 11.514 54.089 8.713L54.722 8.333C55.51 7.86 56 6.996 56 6.076V5.858C56 4.937 55.453 4.107 54.604 3.742L52.932 3.026C49.796 1.682 46.475 1 43.062 1C40.231 1 37.435 1.743 34.977 3.147C32.524 4.549 31 7.174 31 10H29.362C27.642 10 26.004 10.348 24.511 10.963L22.424 7.832C21.295 6.138 19.863 4.706 18.169 3.577C15.639 1.891 12.696 1 9.657 1H7.277C6.021 1 5 2.021 5 3.277C5 4.072 5.424 4.82 6.105 5.229L7.727 6.202C9.246 7.114 10.337 8.627 10.721 10.356C11.527 13.984 14.515 16.592 18.141 16.953C17.593 18.108 17.217 19.36 17.071 20.689C16.908 22.18 17.036 23.682 17.428 25.122C9.863 26.124 4 34.288 4 44C4 54.477 10.729 63 19 63C21.889 63 24.673 61.958 27.086 60.001C30.033 60.004 35.668 60.014 41.111 60.048C41.143 60.048 41.174 60.048 41.205 60.048C44.541 60.048 47.702 58.94 50.292 56.912C51.028 57.597 51.987 58 53 58C54.079 58 55.089 57.57 55.831 56.819C56.211 56.939 56.602 57 57 57C59.206 57 61 55.206 61 53C61 51.552 60.209 50.235 58.973 49.534ZM31 12C32.103 12 33 11.103 33 10C33 7.891 34.138 5.93 35.969 4.884C38.125 3.651 40.579 3 43.062 3C46.203 3 49.258 3.627 52.145 4.865L53.816 5.581C53.928 5.628 54 5.737 54 5.858V6.076C54 6.297 53.882 6.504 53.693 6.618L53.06 6.998C48.627 9.658 39.021 10.663 36.183 10.907C34.938 11.014 34 12.039 34 13.291C34 14.041 34.365 14.761 34.977 15.218C37.797 17.322 39 19.351 39 22C39 23.43 38.694 24.824 38.091 26.143L37.697 26.961L38.362 27.454C39.109 28.008 40 28.9 40 30C40 32.365 35.482 35 29 35C22.518 35 18 32.365 18 30C18 28.9 18.891 28.008 19.638 27.454L20.295 26.967L19.948 26.227C19.157 24.538 18.858 22.748 19.06 20.907C19.615 15.829 24.044 12 29.362 12H31ZM19.003 15C15.941 15 13.338 12.912 12.673 9.923C12.171 7.661 10.743 5.68 8.756 4.488L7.135 3.515C7.052 3.465 7 3.374 7 3.277C7 3.124 7.124 3 7.277 3H9.657C12.3 3 14.859 3.775 17.058 5.241C18.532 6.223 19.777 7.468 20.759 8.942L22.714 11.874C21.384 12.694 20.231 13.757 19.312 15.001H19.003V15ZM6 44C6 35.577 10.765 28.461 17.027 27.206C16.351 28.071 16 29.016 16 30C16 33.887 21.601 36.935 28.787 36.994C27.238 38.435 25.295 39.376 23.157 39.681C21.357 39.938 20 41.504 20 43.322C20 45.35 21.65 47 23.678 47C26.535 47 29.392 46.346 31.972 45.12C31.85 47.541 31.326 49.896 30.449 52.028C26.846 52.311 24 55.326 24 59V59.679C22.424 60.542 20.731 61 19 61C11.832 61 6 53.374 6 44ZM41.204 58.049C41.177 58.049 41.15 58.049 41.123 58.049C34.989 58.011 28.605 58.002 26.101 58C26.565 55.72 28.585 54 31 54H38V51C38 46.589 41.589 43 46 43V41C40.486 41 36 45.486 36 51V52H32.605C33.503 49.543 33.983 46.852 33.997 44.12L38.447 41.895L37.552 40.106L31.418 43.173C29.028 44.368 26.352 45 23.678 45C22.752 45 22 44.248 22 43.322C22 42.492 22.619 41.779 23.44 41.661C26.709 41.195 29.6 39.491 31.596 36.864C37.601 36.233 42 33.445 42 30C42 29.626 41.944 29.258 41.844 28.897C46.513 31.148 50.303 34.842 52.684 39.602C53.545 41.277 54 43.156 54 45.035V45.238C54 48.677 52.657 51.906 50.219 54.33C47.803 56.729 44.605 58.049 41.204 58.049ZM57 55C56.667 55 56.339 54.909 56.023 54.73L55.195 54.261L54.685 55.065C54.314 55.65 53.684 56 53 56C52.556 56 52.129 55.847 51.782 55.579C53.813 53.5 55.166 50.932 55.717 48.138C56.466 48.426 57 49.142 57 49.965L56.935 50.872L57.653 51.122C58.458 51.403 59 52.158 59 53C59 54.103 58.103 55 57 55Z" fill="#222222"></path><path d="M14 53H12V55H14V53Z" fill="#222222"></path><path d="M25 51H23V53H25V51Z" fill="#222222"></path><path d="M20 57H18V59H20V57Z" fill="#222222"></path><path d="M29 28C27.346 28 26 26.654 26 25C26 23.346 27.346 22 29 22C30.654 22 32 23.346 32 25C32 26.654 30.654 28 29 28Z" fill="#ACD2FD"></path></svg>