<svg xmlns="http://www.w3.org/2000/svg" width="64" height="64" viewBox="0 0 64 64" fill="none"><path d="M34.371 21C30.772 21 27.407 22.154 24.535 23.905C24.939 25.331 24.915 27.118 24.371 28V29C27.047 26.518 30.433 25 34.371 25C42.655 25 49.371 31.716 49.371 40V43H53.371V40C53.371 29.523 44.848 21 34.371 21Z" fill="#A9EDFC"></path><path d="M51.252 18.562L51.334 18.27C51.853 16.423 50.418 6.141 48.917 5.162C48.738 5.046 48.361 4.879 47.843 5.073C46.411 5.612 41.99 10.656 41.408 12.73L41.335 12.99C45.076 14.074 48.456 16.002 51.252 18.562Z" fill="#A9EDFC"></path><path d="M17.538 18.73C20.263 16.141 23.644 14.144 27.416 13.022L27.334 12.73C26.752 10.656 22.331 5.612 20.899 5.073C20.38 4.877 20.003 5.046 19.825 5.162C18.324 6.141 16.889 16.423 17.408 18.27L17.538 18.73Z" fill="#A9EDFC"></path><path d="M19.371 31C19.9233 31 20.371 30.5523 20.371 30C20.371 29.4477 19.9233 29 19.371 29C18.8187 29 18.371 29.4477 18.371 30C18.371 30.5523 18.8187 31 19.371 31Z" fill="#222222"></path><path d="M11.371 31C11.9233 31 12.371 30.5523 12.371 30C12.371 29.4477 11.9233 29 11.371 29C10.8187 29 10.371 29.4477 10.371 30C10.371 30.5523 10.8187 31 11.371 31Z" fill="#222222"></path><path d="M62.371 42H60.371V37C60.371 32 58.949 27.328 56.494 23.36C56.881 20.066 56.047 12.959 56.038 12.879C55.458 8.104 53.204 1 49.371 1C45.121 1 38.944 8.033 37.6 11.208C36.541 11.076 35.465 11 34.371 11C33.288 11 32.21 11.075 31.145 11.215C29.808 8.044 23.625 1 19.371 1C15.538 1 13.284 8.104 12.704 12.88C12.695 12.959 11.851 20.16 12.256 23.425C12.049 23.481 11.843 23.535 11.641 23.602C9.897 21.098 8.288 20.261 6.846 21.15C5.56 21.943 5.146 23.862 5.028 24.65C4.812 26.085 4.968 27.413 5.421 28.301C4.598 29.519 4.001 30.898 3.67 32.377C2.977 32.257 2.264 32.136 1.536 32.014L1.208 33.987C1.958 34.112 2.692 34.237 3.405 34.36C3.392 34.573 3.371 34.784 3.371 35C3.371 35.711 3.434 36.394 3.531 37.059L1 38.071L1.742 39.928L3.976 39.035C4.437 40.508 5.149 41.824 6.082 42.939C5.558 45.299 4.964 50.467 8.396 54.608C8.648 59.505 11.919 63 16.371 63H52.371C57.007 63 60.371 59.215 60.371 54V48H62.371V42ZM49.371 3C51.178 3 53.409 7.824 54.052 13.12C54.318 15.312 54.558 18.354 54.593 20.682C50.877 16.086 45.634 12.775 39.639 11.537C41.068 8.668 46.426 3 49.371 3ZM58.371 37V42H39.772C38.333 40.59 36.942 39.427 35.631 38.465C36.022 38.257 36.346 38.019 36.638 37.8C37.258 37.336 37.705 37 38.706 37C39.706 37 40.153 37.336 40.773 37.8C41.486 38.335 42.373 39 44.04 39C45.555 39 46.352 38.7 47.058 38.437C47.653 38.213 48.177 38.021 49.223 38.004C49.133 37.325 48.997 36.662 48.819 36.015C47.653 36.078 46.968 36.334 46.355 36.564C45.73 36.798 45.191 37 44.04 37C43.04 37 42.593 36.664 41.973 36.2C41.26 35.665 40.373 35 38.706 35C37.039 35 36.151 35.665 35.438 36.2C34.838 36.649 34.39 36.971 33.456 36.992C30.929 35.431 28.88 34.657 27.684 34.3C28.289 34.196 28.905 34.091 29.535 33.986L29.207 32.013C28.479 32.134 27.766 32.256 27.073 32.376C26.742 30.897 26.144 29.518 25.322 28.3C25.774 27.412 25.931 26.084 25.715 24.649C25.597 23.861 25.183 21.942 23.897 21.149C22.454 20.26 20.844 21.097 19.101 23.601C17.926 23.215 16.674 23 15.371 23C15.307 23 15.245 23.009 15.182 23.01C19.393 16.882 26.734 13 34.371 13C47.604 13 58.371 23.767 58.371 37ZM8.201 42.3C8.161 42.26 8.122 42.219 8.082 42.178L8.34 42.242C9.264 38.551 10.59 36.842 13.102 36.117C13.426 36.431 13.835 36.668 14.3 36.815C14.128 37.987 13.522 40 11.371 40V42C13.365 42 14.617 41.002 15.371 39.747C16.125 41.002 17.377 42 19.371 42V40C17.237 40 16.623 37.987 16.446 36.815C16.91 36.667 17.318 36.431 17.639 36.118C20.111 36.831 21.433 38.508 22.354 42.079C20.536 43.873 18.058 45 15.371 45C12.255 45 9.923 43.973 8.293 42.394C8.298 42.379 8.309 42.347 8.311 42.339L8.201 42.3ZM16.321 34.626C16.195 34.807 15.845 35 15.371 35C14.897 35 14.546 34.806 14.415 34.62C14.371 34.559 14.371 34.515 14.371 34.5C14.371 34.323 14.751 34 15.371 34C15.991 34 16.371 34.323 16.371 34.5C16.371 34.514 16.371 34.558 16.321 34.626ZM23.876 40.156C23.51 39.064 23.079 38.14 22.57 37.357L24.795 38.247C24.557 38.917 24.248 39.556 23.876 40.156ZM22.592 35.211C23.424 35.057 24.354 34.887 25.356 34.708C25.359 34.806 25.371 34.901 25.371 35C25.371 35.435 25.331 35.862 25.274 36.284L22.592 35.211ZM23.785 26.458C22.959 25.644 22.015 24.95 20.983 24.401C22.069 22.933 22.697 22.759 22.845 22.851C23.152 23.04 23.561 23.776 23.737 24.946C23.824 25.521 23.827 26.033 23.785 26.458ZM19.371 3C22.328 3 27.716 8.712 29.12 11.57C23.17 12.85 17.761 16.243 14.146 21.029C14.161 18.662 14.411 15.424 14.69 13.12C15.333 7.824 17.564 3 19.371 3ZM7.005 24.946C7.181 23.776 7.59 23.04 7.897 22.851C8.044 22.759 8.672 22.933 9.759 24.401C8.726 24.95 7.783 25.644 6.957 26.458C6.915 26.033 6.918 25.521 7.005 24.946ZM15.371 25C20.1 25 24.065 28.304 25.099 32.723C21.57 33.352 18.906 33.875 18.311 33.993C18.037 32.842 16.844 32 15.371 32C13.898 32 12.705 32.842 12.431 33.992C11.836 33.874 9.172 33.351 5.643 32.722C6.677 28.304 10.642 25 15.371 25ZM5.371 35C5.371 34.901 5.383 34.806 5.386 34.708C6.388 34.887 7.318 35.057 8.15 35.211L5.45 36.291C5.403 35.862 5.371 35.432 5.371 35ZM8.171 37.357C7.618 38.207 7.16 39.231 6.774 40.448C6.381 39.768 6.077 39.04 5.852 38.285L8.171 37.357ZM7.789 44.571C9.8 46.115 12.393 47 15.371 47C20.484 47 24.96 43.599 26.647 38.988L29 39.929L29.742 38.072L27.175 37.045C27.221 36.792 27.267 36.538 27.296 36.281C29.027 36.832 32.643 38.331 36.83 42.001H28.371C26.1 42.001 25.751 44.999 25.383 48.173C25.097 50.632 24.706 54 23.371 54C21.867 54 21.374 50.631 21.371 48.999L21.368 47.134L19.816 48.168C17.23 49.891 13.648 49.038 13.613 49.03L11.997 48.626L13.386 54.182C13.418 54.569 13.116 54.938 12.813 55.123C12.693 55.195 12.276 55.417 11.951 55.185C7.499 52.024 7.382 47.326 7.789 44.571ZM58.371 54C58.371 58.056 55.848 61 52.371 61H16.371C13.776 61 11.714 59.359 10.834 56.84C11.268 57.136 11.769 57.288 12.287 57.288C12.812 57.288 13.353 57.136 13.853 56.83C14.932 56.172 15.524 55.006 15.361 53.858L14.704 51.208C15.94 51.309 17.735 51.277 19.471 50.59C19.714 52.679 20.545 56 23.371 56C26.486 56 26.955 51.964 27.369 48.403C27.384 48.277 27.399 48.141 27.416 48H58.371V54ZM60.371 46H27.694C27.865 45.01 28.087 44.146 28.371 44H60.371V46Z" fill="#222222"></path></svg>