<svg xmlns="http://www.w3.org/2000/svg" width="64" height="64" viewBox="0 0 64 64" fill="none"><path d="M62.9996 26C62.9996 25.615 62.8166 25.269 62.4986 25.048C62.1236 24.787 61.3666 24.258 54.7396 26.661C54.1886 24.272 53.7726 24.144 53.3686 24.021L52.7176 23.867L45.4876 31.098L45.0346 34.724C46.4426 34.521 48.2026 34.24 48.9996 34C50.7426 33.476 52.9996 30 54.9996 32C55.9996 33 54.9996 35 54.9996 35C54.9996 35 56.9996 36 55.9996 38C54.9996 40 51.9996 39 49.9996 38L41.4936 39.547C40.2306 39.777 39.0806 38.783 39.1376 37.501C39.1616 36.949 39.1856 36.326 39.2046 35.662L38.4996 36.132C36.7406 36.984 34.0356 37 33.9996 37C34.9996 39 34.9996 45 34.9996 45C34.9996 45 37.9996 46 37.9996 48C37.9996 50.236 34.9996 50 34.9996 50C34.9996 50 34.9996 52 32.9996 52C29.9996 52 29.9996 49 29.9996 47C29.9996 45 29.9996 44 29.9996 43C29.9996 41.117 24.6836 41.007 24.0626 41C26.2716 44.154 26.6936 48.514 24.7746 52C21.4476 58.043 13.3926 59.797 7.60162 56C5.00162 54.295 1.70062 50.405 2.03762 44.96L0.999619 45.219V63H25.1816L25.3516 62.937C32.9706 60.079 62.9996 41.901 62.9996 33V32.279L60.6206 31.486C61.7186 29.763 62.9996 27.025 62.9996 26Z" fill="#FFC2A0"></path><path d="M56.2136 34.637C56.4936 33.735 56.7066 32.293 55.7066 31.293C53.7346 29.32 51.5396 31.027 50.2276 32.049C49.6736 32.48 49.1006 32.925 48.7106 33.042C48.2106 33.192 47.2286 33.371 46.1896 33.536L46.9496 27.461C48.2356 26.145 54.0656 20.025 55.9286 15.371C57.6506 11.065 56.6396 8.068 56.1006 6.941C56.1186 6.875 56.1406 6.806 56.1506 6.744C56.3156 5.791 55.7886 5.324 55.5536 5.168C52.3396 3.024 44.3386 3 43.9996 3V5C46.0466 5.001 51.6666 5.303 54.1246 6.64C53.2526 9.169 43.0446 19.208 39.7576 20.031C37.7096 20.541 34.4426 20.549 31.9626 18.882C30.3076 17.769 29.3066 16.079 28.9896 13.86L28.9486 13.572L28.7586 13.351C25.9266 10.046 23.6096 6.276 23.8626 5.498C24.5886 4.744 30.1076 4.515 35.9176 4.997L36.0836 3.005C31.3496 2.608 23.2386 2.286 22.1046 4.553C21.1536 6.455 23.8576 10.436 25.9436 13.075C13.8016 13.831 3.89862 21.465 2.01462 31.821C1.58762 34.172 1.18062 38.836 1.60662 41.665C1.60162 41.683 1.59462 41.703 1.58962 41.72C-0.488381 48.871 3.23362 54.332 7.05262 56.835C9.22362 58.259 11.7706 59 14.3476 59C15.4296 59 16.5176 58.869 17.5846 58.604C21.0916 57.732 23.9546 55.558 25.6486 52.481C27.0646 49.91 27.3806 46.75 26.5166 43.81C26.3406 43.214 26.1126 42.647 25.8556 42.1C27.5406 42.282 28.8406 42.673 28.9996 43V47C28.9996 48.947 28.9996 53 32.9996 53C34.6496 53 35.5126 51.991 35.8406 50.979C36.5276 50.91 37.4556 50.692 38.1376 50.062C38.7016 49.54 38.9996 48.827 38.9996 48C38.9996 45.981 37.0716 44.816 35.9926 44.322C35.9616 42.607 35.7936 38.35 34.8936 36.552C34.3506 35.466 32.4786 34.678 30.3686 34.115C31.7836 32.799 33.8476 30.969 35.5546 29.831C36.9586 28.896 37.7526 28.753 38.1256 28.756C38.2686 30.74 38.3106 33.556 38.1386 37.455C38.0986 38.369 38.4696 39.238 39.1586 39.839C39.7126 40.321 40.4076 40.579 41.1276 40.579C41.3086 40.579 41.4906 40.562 41.6726 40.529L49.8576 39.042C53.3216 40.69 55.8786 40.482 56.8956 38.446C57.7226 36.791 57.0856 35.431 56.2136 34.637ZM55.1046 37.553C54.9976 37.768 54.7496 38.272 53.4846 38.131C52.4356 38.015 51.2536 37.509 50.4466 37.106L50.1486 36.957L41.3136 38.564C41.0076 38.619 40.7046 38.536 40.4726 38.334C40.3386 38.218 40.1176 37.96 40.1356 37.545C40.6796 25.268 39.1946 23.782 38.7056 23.294L37.2916 24.708C37.4886 24.905 37.7226 25.535 37.9096 26.761C37.0846 26.814 35.9516 27.163 34.4436 28.168C32.1356 29.707 29.3186 32.331 28.0136 33.587C26.5106 33.302 25.0826 33.115 24.1086 33.006L23.8876 34.994C28.3836 35.494 32.6906 36.64 33.1036 37.447C33.7566 38.749 33.9996 42.771 33.9996 45V45.721L34.6836 45.949C35.1726 46.111 36.9996 46.938 36.9996 48C36.9996 48.344 36.8836 48.496 36.7816 48.591C36.3486 48.993 35.3866 49.025 35.0776 49.003L34.0256 48.934L33.9996 49.988C33.9876 50.45 33.8056 51 32.9996 51C31.2986 51 30.9996 49.71 30.9996 47V43C30.9996 40.519 26.8956 40.067 24.5886 40.009C23.6736 38.822 22.5346 37.836 21.2096 37.12C16.7076 34.689 11.1176 36.213 8.74562 40.517C7.86662 42.114 7.69062 44.043 8.25162 45.951C8.87562 48.073 10.3066 49.869 12.1766 50.88C13.6866 51.694 15.4936 51.866 17.1396 51.35C18.6816 50.866 19.9166 49.836 20.6166 48.452C21.7736 46.162 20.8476 43.707 19.4176 42.29C18.2866 41.17 16.7256 40.869 15.2426 41.488C13.7226 42.122 12.6626 43.566 12.6626 45.001H14.6626C14.6626 44.382 15.2556 43.65 16.0126 43.334C16.5326 43.12 17.2996 43.007 18.0106 43.712C18.6946 44.389 19.6366 45.958 18.8316 47.55C18.3776 48.449 17.5636 49.121 16.5416 49.443C15.4076 49.797 14.1626 49.682 13.1286 49.122C11.7446 48.374 10.6396 46.978 10.1716 45.39C9.76262 43.997 9.87862 42.611 10.4986 41.485C12.3106 38.194 16.7816 37.004 20.2596 38.882C22.3486 40.01 23.8896 41.962 24.6006 44.378C25.3156 46.81 25.0596 49.412 23.8996 51.52C22.4776 54.103 20.0646 55.931 17.1046 56.666C14.0356 57.428 10.7706 56.883 8.15062 55.166C7.42962 54.693 1.17662 50.317 3.51162 42.281C4.51662 38.821 6.32362 33.642 10.3986 28.633L8.84762 27.371C6.36762 30.419 4.70362 33.504 3.52262 36.274C3.62462 34.714 3.79762 33.211 3.98462 32.181C5.75962 22.423 15.4506 15.321 27.1846 15.03C27.7166 17.379 28.9656 19.277 30.8486 20.543C32.8056 21.859 35.1426 22.326 37.2096 22.326C38.3356 22.326 39.3816 22.187 40.2426 21.972C43.3936 21.185 51.5036 13.845 54.7746 9.333C54.9906 10.544 54.9886 12.338 54.0716 14.631C52.1726 19.381 45.3616 26.227 45.2936 26.295L45.0506 26.537L44.1376 33.843C43.6286 33.913 43.1836 33.971 42.8766 34.01L43.1246 35.994C43.3136 35.971 47.7886 35.41 49.2876 34.96C50.0356 34.735 50.7256 34.198 51.4576 33.629C53.1536 32.309 53.7106 32.126 54.2936 32.709C54.6296 33.046 54.3316 34.097 54.1056 34.555L53.6586 35.45L54.5536 35.897C54.8116 36.024 55.6176 36.527 55.1046 37.553Z" fill="#222222"></path><path d="M12.2206 23.373L13.7796 24.627C17.5626 19.928 23.2616 17.967 23.3186 17.948L22.6826 16.052C22.4276 16.137 16.3816 18.204 12.2206 23.373Z" fill="#222222"></path><path d="M39.9996 15C36.1406 15 32.9996 11.859 32.9996 8C32.9996 4.141 36.1406 1 39.9996 1C43.8586 1 46.9996 4.141 46.9996 8C46.9996 11.859 43.8586 15 39.9996 15Z" fill="#FFC2A0"></path><path d="M39.9996 11C38.3456 11 36.9996 9.654 36.9996 8H38.9996C38.9996 8.552 39.4476 9 39.9996 9C40.5516 9 40.9996 8.552 40.9996 8H42.9996C42.9996 9.654 41.6536 11 39.9996 11Z" fill="#222222"></path></svg>