<svg xmlns="http://www.w3.org/2000/svg" width="64" height="64" viewBox="0 0 64 64" fill="none"><g clip-path="url(#clip0_614_3161)"><path d="M1.82503 40.5863C2.12232 40.3799 2.48155 40.2581 2.87071 40.2581C3.02142 40.2581 3.1711 40.2766 3.31665 40.3128L5.7951 40.9321C7.24232 40.2901 8.25807 38.8439 8.25807 37.1613C8.25807 34.8841 6.40619 33.0323 4.12903 33.0323C1.85187 33.0323 9.53674e-07 34.8841 9.53674e-07 37.1613C9.53674e-07 38.5858 0.724646 39.8441 1.82503 40.5863Z" fill="#F8CCFB"></path><path d="M10.3226 22.7097C8.61523 22.7097 7.22581 24.0991 7.22581 25.8065C7.22581 27.5138 8.61523 28.9032 10.3226 28.9032C12.0299 28.9032 13.4194 27.5138 13.4194 25.8065C13.4194 24.0991 12.0299 22.7097 10.3226 22.7097ZM10.3226 26.8387C9.75278 26.8387 9.29032 26.3752 9.29032 25.8065C9.29032 25.2377 9.75278 24.7742 10.3226 24.7742C10.8924 24.7742 11.3548 25.2377 11.3548 25.8065C11.3548 26.3752 10.8924 26.8387 10.3226 26.8387Z" fill="#222222"></path><path d="M18.5806 11.8421V14.4516H20.6452V11.8421C20.6452 9.38839 22.0088 7.18142 24.2034 6.08413L23.2795 4.23742C20.3809 5.68774 18.5806 8.60181 18.5806 11.8421Z" fill="#222222"></path><path d="M24.7742 14.4516C24.7742 13.0446 25.6712 11.7997 27.0049 11.3548L27.1639 11.3022L26.5125 9.34297L26.3525 9.39665C24.1734 10.1223 22.7097 12.1538 22.7097 14.4516H24.7742Z" fill="#222222"></path><path d="M22.7097 28.9032C18.4537 28.9032 14.3319 30.1512 10.7902 32.512L9.74968 33.2057L10.8945 34.9234L11.935 34.2297C15.137 32.096 18.8614 30.9677 22.7097 30.9677V28.9032Z" fill="#222222"></path><path d="M12.8485 37.0529L13.2841 36.8351C15.5582 35.6975 18.1037 35.0968 20.6452 35.0968V33.0323C17.7848 33.0323 14.9203 33.7084 12.3613 34.9884L11.9257 35.2062L12.8485 37.0529Z" fill="#222222"></path><path d="M54.3504 23.4963L56.3293 21.5174L55.2815 20.8186C53.087 19.3548 50.5301 18.5806 47.8916 18.5806H46.0583L47.0906 16.5161H45.4194C41.8643 16.5161 38.3525 17.4483 35.265 19.2124L33.5701 20.1806C32.2209 20.9517 30.4268 20.7102 29.3306 19.6129L28.4243 18.7066C31.2052 16.7628 33.0323 13.5422 33.0323 9.89832C33.0323 4.44077 28.5915 0 23.1329 0C22.7128 0 22.3019 0.0846452 21.9138 0.250839C18.5693 1.68361 16.1032 4.47897 15.0369 7.82555C13.3151 6.77058 11.3259 6.19355 9.29032 6.19355H7.85755L8.89084 9.29342C6.81497 9.34916 4.87123 10.1832 3.39923 11.6573L2.38761 12.6699L6.56516 14.7592C3.65316 18.1399 2.06452 22.4041 2.06452 26.912V33.6062C2.67458 33.2511 3.37342 33.0323 4.12903 33.0323L4.12903 26.912C4.12903 22.4815 5.85497 18.3154 8.98787 15.1814L10.0005 14.1688L6.04594 12.192C6.96464 11.6459 8.01652 11.3548 9.11277 11.3548H11.7554L10.7634 8.3809C12.1342 8.61006 13.4307 9.17471 14.5579 9.99948C14.4919 10.5156 14.4516 11.0369 14.4516 11.5665V14.4516H16.5161V11.5665C16.5161 7.46116 18.9533 3.76465 22.7262 2.14813C22.8563 2.09239 22.9925 2.06452 23.1329 2.06452C27.4529 2.06452 30.9677 5.57935 30.9677 9.89832C30.9677 14.6859 27.0741 18.5806 22.2865 18.5806H20.6452V20.6452H22.2865C23.8028 20.6452 25.2449 20.3252 26.5548 19.7564L27.871 21.0735C28.927 22.1285 30.3308 22.7097 31.8225 22.7097C32.7928 22.7097 33.7517 22.4547 34.5951 21.9737L36.2901 21.0054C38.5693 19.7027 41.1055 18.9048 43.7099 18.6612L42.7169 20.6452H47.8916C49.695 20.6452 51.4508 21.0725 53.0374 21.8901L50.9027 24.0248L52.1837 24.6658C58.1987 27.6728 61.9355 33.7187 61.9355 40.4439V57.7022C60.575 57.4235 59.3961 56.5966 58.6601 55.3961C59.4343 53.633 59.871 51.6903 59.871 49.6454C59.871 48.1001 59.6232 46.5724 59.1339 45.1066L58.785 44.0609L56.8279 44.7143L57.1768 45.76C57.5948 47.0163 57.8064 48.3231 57.8064 49.6465C57.8064 56.4222 52.2932 61.9355 45.5174 61.9355H38.6519C39.007 61.3254 39.2258 60.6266 39.2258 59.871H37.1613C37.1613 61.0095 36.2354 61.9355 35.0968 61.9355C33.9582 61.9355 33.0323 61.0095 33.0323 59.871H30.9677C30.9677 60.6266 31.1866 61.3254 31.5417 61.9355H30.9677C29.8292 61.9355 28.9032 61.0095 28.9032 59.871C28.9032 58.7324 29.8292 57.8064 30.9677 57.8064H43.7822L38.0005 52.0248C36.128 50.1523 35.0968 47.6624 35.0968 45.0126C35.0968 39.5458 39.5458 35.0968 45.0126 35.0968C47.7161 35.0968 50.3948 35.9897 52.5574 37.6124L53.0581 37.9871L54.2968 36.3355L53.7972 35.9608C51.2795 34.0717 48.16 33.0323 45.0126 33.0323C38.4072 33.0323 33.0323 38.4072 33.0323 45.0126C33.0323 47.6862 33.9117 50.2183 35.5169 52.3004C34.3463 54.4031 32.1301 55.7419 29.6919 55.7419C28.6606 55.7419 27.6274 55.4983 26.7035 55.0359L24.7742 54.0717V49.1035C27.329 47.5706 28.9032 44.8526 28.9032 41.8354V38.9688C30.1946 37.2046 30.9677 35.0369 30.9677 32.6875C30.9677 29.3471 29.3729 26.1574 26.7014 24.1548L26.4258 23.9484L25.1861 25.6L25.4627 25.8064C27.617 27.4219 28.9032 29.9943 28.9032 32.6885C28.9032 37.4317 25.0446 41.2903 20.3014 41.2903C15.9112 41.2903 11.5148 40.8114 7.22684 39.8803C7.13806 39.9814 7.02865 40.0599 6.93058 40.1517L3.56645 39.3105C3.33626 39.2547 3.104 39.2258 2.87071 39.2258C1.28826 39.2258 0 40.5141 0 42.0965C0 42.3308 0.027871 42.5652 0.0856774 42.7933L2.624 52.9424C3.64181 57.0219 7.29084 59.871 11.4983 59.871C14.2132 59.871 16.735 58.6839 18.4619 56.6493C19.3466 57.3615 20.4552 57.8064 21.6774 57.8064C22.848 57.8064 23.8575 57.1458 24.383 56.1848L25.7796 56.8836C26.3484 57.1675 26.9502 57.3832 27.5665 57.537C27.1092 58.2018 26.8387 59.0049 26.8387 59.871C26.8387 62.1481 28.6906 64 30.9677 64H45.5174C50.5755 64 55.0214 61.3636 57.5783 57.3987C58.911 58.9492 60.8506 59.871 62.9677 59.871H64V40.4439C64 33.407 60.3375 27.0359 54.3504 23.4963ZM26.8387 41.0983V41.8354C26.8387 43.8699 25.8911 45.7228 24.321 46.9264C23.7781 46.0274 22.8015 45.4194 21.6774 45.4194C20.8289 45.4194 20.0392 45.6454 19.3321 46.0098C18.6746 44.9115 17.8034 43.9804 16.7752 43.2557C17.9499 43.3208 19.1257 43.3548 20.3014 43.3548C22.7654 43.3548 25.0312 42.5063 26.8387 41.0983ZM11.4983 57.8064C8.24155 57.8064 5.41523 55.6005 4.62658 52.4408L2.08929 42.2937C2.07277 42.2297 2.06452 42.1626 2.06452 42.0965C2.06452 41.5866 2.56413 41.1902 3.06684 41.3151L13.216 43.8524C15.1577 44.3375 16.7587 45.5917 17.7053 47.327C16.9734 48.2168 16.5161 49.3409 16.5161 50.5806V52.6452C16.5161 53.503 16.7463 54.3009 17.119 55.0142C15.7812 56.768 13.727 57.8064 11.4983 57.8064ZM22.7097 54.7097C22.7097 55.2785 22.2472 55.7419 21.6774 55.7419C19.9701 55.7419 18.5806 54.3525 18.5806 52.6452V50.5806C18.5806 48.8733 19.9701 47.4839 21.6774 47.4839C22.2472 47.4839 22.7097 47.9474 22.7097 48.5161V54.7097ZM36.961 53.9045L38.7985 55.7419H35.3197C35.9463 55.2145 36.4986 54.5972 36.961 53.9045Z" fill="#222222"></path><path d="M12.1579 53.6041L12.6152 55.617C13.6227 55.3879 14.5218 54.8614 15.2165 54.0934L13.6867 52.7081C13.2779 53.1603 12.7505 53.4689 12.1579 53.6041Z" fill="#222222"></path><path d="M8.63174 51.4395L7.57987 47.2341L5.57832 47.7347L6.62916 51.9391C7.05239 53.6351 8.35097 55.007 10.0191 55.52L10.6261 53.5474C9.62994 53.2408 8.88465 52.4532 8.63174 51.4395Z" fill="#222222"></path></g><defs><clipPath id="clip0_614_3161"><rect width="64" height="64" fill="white"></rect></clipPath></defs></svg>