<svg xmlns="http://www.w3.org/2000/svg" width="64" height="64" viewBox="0 0 64 64" fill="none"><g clip-path="url(#clip0_614_3127)"><path d="M53.7182 34.518L52.6834 33.7419L45.1148 35.1476V38.2029C45.1148 40.5697 46.2649 42.8033 48.1911 44.1789L52.4851 47.2454C52.9344 47.5677 53.4641 47.7378 54.0169 47.7378C55.4723 47.7378 56.6557 46.5544 56.6557 45.0989V40.3935C56.6557 38.0948 55.5574 35.8976 53.7182 34.518Z" fill="#C3FFE3"></path><path d="M30.7085 40.77C29.1737 38.9289 28.3279 36.5953 28.3279 34.1983V32.0001L22.2628 29.246L20.3038 31.6947C18.7121 33.6829 17.8361 36.1819 17.8361 38.7306C17.8361 40.686 18.3489 42.6179 19.3197 44.3177C21.2879 47.7608 23.9211 50.6763 27.1486 52.9806L29.4022 54.5897C29.8525 54.9119 30.3822 55.082 30.9349 55.082C32.3904 55.082 33.5738 53.8986 33.5738 52.4432V48.687C33.5738 45.7998 32.5558 42.9893 30.7085 40.77Z" fill="#C3FFE3"></path><path d="M14.1081 19.52L11.2746 18.1025C10.2367 17.5856 9.07633 17.3115 7.91906 17.3115C5.94365 17.3115 4.00973 18.1133 2.61373 19.5098L1.19621 20.9268C0.424693 21.6983 0 22.7234 0 23.8146C0 24.5539 0.200307 25.2803 0.582479 25.9171L1.01127 26.6322C2.60912 29.2962 5.53125 30.9509 8.63883 30.9509C10.0133 30.9509 11.3888 30.6256 12.6173 30.0108L14.5164 29.0626C14.7915 28.9248 15.0989 28.8525 15.4052 28.8525H19.9344V26.7542L14.1081 19.52Z" fill="#C3FFE3"></path><path d="M63.6388 30.0226L61.0056 25.1942C59.6332 22.6783 57.9001 20.3602 55.895 18.3105L55.9027 18.3008L55.835 18.2475C54.4652 16.8541 52.9708 15.5815 51.3658 14.4703C46.1189 10.8382 39.9718 8.91809 33.5886 8.91809C27.1624 8.91809 20.9375 10.2665 15.0871 12.9248L14.1921 13.332C12.582 14.0651 11.541 15.6819 11.541 17.4509C11.541 18.2265 11.7413 18.9934 12.1224 19.6681C17.8571 29.8638 28.6855 36.1968 40.3832 36.1968C47.064 36.1968 53.7905 35.6409 60.375 34.5421L61.5333 34.3489C62.9626 34.1102 64 32.8858 64 31.4365C64 30.9437 63.875 30.4545 63.6388 30.0226ZM60.2167 28.1307C57.1142 28.7654 53.9749 29.2291 50.8192 29.5221L47.2131 22.31V21.288C47.2131 20.3561 47.5753 19.4811 48.2341 18.8233C49.4908 17.5667 51.4867 17.4529 52.8735 18.5672L54.4242 19.8074C56.2823 21.7127 57.8893 23.8638 59.1634 26.1993L60.2167 28.1307ZM31.082 13.3479C31.2731 14.3003 30.9759 15.2793 30.2889 15.9652L29.8227 16.4324L21.168 20.2787C19.5548 18.4898 18.1644 16.5016 17.04 14.3771C20.9764 12.7152 25.0784 11.6584 29.2982 11.2357C30.2059 11.5953 30.8878 12.3802 31.082 13.3479ZM30.6496 18.3607H31.3484C32.4857 18.3607 33.5999 18.8223 34.4057 19.6271C35.2218 20.4432 35.6721 21.5293 35.6721 22.6845V23.3592L33.2182 28.2659C30.2802 27.2429 27.501 25.7629 25.022 23.8551C24.2223 23.2403 23.4585 22.5774 22.7264 21.8817L30.6496 18.3607ZM37.5354 24.3254L38.4892 23.6896C40.4636 22.372 43.1127 22.206 45.2418 23.27L45.3811 23.3402L48.5625 29.7024C46.6424 29.8295 44.7193 29.9017 42.7971 29.9017C40.2444 29.9017 37.7085 29.5451 35.2556 28.8848L37.5354 24.3254ZM33.5897 11.0165C39.313 11.0165 44.8253 12.6876 49.5927 15.8279C48.5487 16.039 47.5543 16.5364 46.7495 17.3407C45.7746 18.3156 45.2049 19.5861 45.124 20.9488C42.6762 20.1025 39.9047 20.3868 37.6962 21.7086C37.4923 20.3638 36.8683 19.1235 35.8883 18.1445C34.9723 17.2285 33.8289 16.6245 32.5856 16.3817C33.1721 15.3505 33.3765 14.1317 33.1373 12.9365C33 12.246 32.7167 11.6082 32.3253 11.0513C32.7469 11.0375 33.1665 11.0165 33.5897 11.0165ZM61.188 32.2803L60.0297 32.4734C53.5594 33.5518 46.9498 34.0984 40.3832 34.0984C29.4421 34.0984 19.3146 28.1748 13.9508 18.6399C13.7474 18.2777 13.6393 17.8663 13.6393 17.4509C13.6393 16.5026 14.1977 15.6358 15.061 15.2424L15.1101 15.2203C17.2003 19.2157 20.1696 22.7716 23.7428 25.5205C29.1757 29.6993 35.9416 32.0001 42.7971 32.0001C49.0021 32.0001 55.2152 31.3402 61.2669 30.0559L61.7966 31.0277C61.8648 31.1522 61.9016 31.2941 61.9016 31.4365C61.9016 31.8551 61.6004 32.2101 61.188 32.2803Z" fill="#222222"></path><path d="M7.34426 21.5083H9.44262V23.6066H7.34426V21.5083Z" fill="#222222"></path></g><defs><clipPath id="clip0_614_3127"><rect width="64" height="64" fill="white"></rect></clipPath></defs></svg>