<svg xmlns="http://www.w3.org/2000/svg" width="64" height="64" viewBox="0 0 64 64" fill="none"><g clip-path="url(#clip0_614_3014)"><path d="M24.5176 20.3806L31.6989 13.1993L30.248 11.7484L23.0667 18.9296L24.5176 20.3806Z" fill="#FCC0BB"></path><path d="M24.5178 27.5662L36.8296 15.2545L35.3786 13.8036L23.0669 26.1153L24.5178 27.5662Z" fill="#FCC0BB"></path><path d="M31.702 27.5641L40.9356 18.3305L39.4847 16.8796L30.2511 26.1132L31.702 27.5641Z" fill="#FCC0BB"></path><path d="M40.2078 58.6465C31.7374 58.6465 21.3032 57.5435 15.7486 48.9439L15.3895 48.3868L15.7497 47.8297C21.3032 39.23 31.7374 38.1271 40.2078 38.1271C48.6956 38.1271 58.1191 39.2803 63.6409 47.8297L64 48.3868L63.6399 48.9439C58.1191 57.4933 48.6956 58.6465 40.2078 58.6465Z" fill="#FCC0BB"></path><path d="M62.7791 11.4518V9.39991C56.7813 9.39991 51.3652 12.3916 47.3854 17.858C43.5001 12.5609 37.6131 8.78227 30.974 7.17971V0.223633L22.3785 6.36406C13.315 6.79702 5.34735 11.38 0.359089 19.1015L0 19.6596L0.360115 20.2167C3.94075 25.76 9.05726 29.6864 15.011 31.6224L15.129 31.7989C15.1474 31.7866 15.1956 31.7527 15.2644 31.7045C16.8587 32.2062 18.5116 32.5684 20.2106 32.7787L20.1716 32.8413L29.9491 38.953V32.3601C37.0037 30.9114 43.3021 27.0291 47.3865 21.4622C51.3652 26.9276 56.7823 29.9193 62.7791 29.9193V27.8674C58.7809 27.8674 56.6233 23.6383 56.6233 19.6596C56.6233 15.6809 58.7809 11.4518 62.7791 11.4518ZM28.9221 6.76419C27.9136 6.59285 26.8937 6.46769 25.8616 6.39689L28.9221 4.21158V6.76419ZM27.8961 35.2492L24.2683 32.9828C25.4902 32.9634 26.7009 32.8731 27.8961 32.712V35.2492ZM23.7922 30.9453C21.491 30.9453 19.2616 30.6518 17.1306 30.0978C19.08 28.1598 21.7403 24.614 21.7403 19.6596C21.7403 17.501 21.6049 15.21 20.6199 13.0739L18.7568 13.9337C19.5304 15.6111 19.6884 17.4353 19.6884 19.6596C19.6884 24.5935 16.4648 28.0059 14.8663 29.395C9.8883 27.5904 5.5823 24.2601 2.45207 19.6596C7.33876 12.4778 15.0787 8.37394 23.7922 8.37394C32.8598 8.37394 41.363 12.681 46.1574 19.6596C41.363 26.6383 32.8598 30.9453 23.7922 30.9453ZM54.5713 19.6596C54.5713 22.1158 55.2731 24.6468 56.6243 26.5808C53.571 25.247 50.8378 22.9006 48.6207 19.6596C50.8378 16.4186 53.571 14.0722 56.6243 12.7384C55.2731 14.6724 54.5713 17.2034 54.5713 19.6596Z" fill="#222222"></path><path d="M12.5066 14.5298C10.8096 14.5298 9.42866 15.9107 9.42866 17.6077C9.42866 19.3046 10.8096 20.6856 12.5066 20.6856C14.2035 20.6856 15.5845 19.3046 15.5845 17.6077C15.5845 15.9107 14.2035 14.5298 12.5066 14.5298ZM12.5066 18.6336C11.9402 18.6336 11.4806 18.174 11.4806 17.6077C11.4806 17.0413 11.9402 16.5817 12.5066 16.5817C13.0729 16.5817 13.5325 17.0413 13.5325 17.6077C13.5325 18.174 13.0729 18.6336 12.5066 18.6336Z" fill="#222222"></path><path d="M1.2209 41.205V43.2569C5.13498 43.2569 6.35075 47.0171 6.35075 48.3868C6.35075 49.7564 5.13498 53.5166 1.2209 53.5166V55.5686C8.61199 55.5686 13.9091 54.4605 17.4723 48.9439L17.8324 48.3868L17.4723 47.8307C13.9101 42.313 8.61302 41.205 1.2209 41.205ZM6.44925 53.2375C7.79634 51.6996 8.40269 49.7308 8.40269 48.3868C8.40269 47.0427 7.79634 45.0739 6.44925 43.536C10.3038 44.0418 13.194 45.353 15.3701 48.3868C13.194 51.4195 10.3038 52.7307 6.44925 53.2375Z" fill="#222222"></path><path d="M44.3116 48.3868C44.3116 46.3574 45.1488 44.6584 45.9378 44.089L44.7374 42.4259C43.2559 43.4949 42.2597 45.8906 42.2597 48.3868C42.2597 54.7714 47.5342 57.2122 50.3218 57.6102L50.6121 55.5788C50.3556 55.5429 44.3116 54.6072 44.3116 48.3868Z" fill="#222222"></path><path d="M51.4934 43.2569C49.7965 43.2569 48.4155 44.6379 48.4155 46.3348C48.4155 48.0318 49.7965 49.4127 51.4934 49.4127C53.1904 49.4127 54.5713 48.0318 54.5713 46.3348C54.5713 44.6379 53.1904 43.2569 51.4934 43.2569ZM51.4934 47.3608C50.9271 47.3608 50.4675 46.9012 50.4675 46.3348C50.4675 45.7685 50.9271 45.3089 51.4934 45.3089C52.0598 45.3089 52.5194 45.7685 52.5194 46.3348C52.5194 46.9012 52.0598 47.3608 51.4934 47.3608Z" fill="#222222"></path><path d="M36.1316 32.9972C34.4192 32.9972 33.027 34.3895 33.027 36.1018V40.179H35.0789V36.1018C35.0789 35.5211 35.5509 35.0492 36.1316 35.0492C36.4527 35.0492 36.7523 35.1938 36.9534 35.4452L40.4335 39.7943L42.036 38.5118L38.5549 34.1627C37.9619 33.422 37.0785 32.9972 36.1316 32.9972Z" fill="#222222"></path><path d="M38.0676 61.3879C37.8532 61.6023 37.5567 61.7244 37.254 61.7244C36.6199 61.7244 36.1039 61.2083 36.1039 60.5743V56.5945H34.0519V60.5743C34.0519 62.34 35.4883 63.7763 37.254 63.7763C38.0973 63.7763 38.9222 63.4347 39.5183 62.8386L44.011 58.3459L42.5603 56.8951L38.0676 61.3879Z" fill="#222222"></path><path d="M40.2078 47.3608H38.1558V49.4127H40.2078V47.3608Z" fill="#222222"></path><path d="M36.1039 47.3608H34.0519V49.4127H36.1039V47.3608Z" fill="#222222"></path><path d="M32 47.3608H29.9481V49.4127H32V47.3608Z" fill="#222222"></path><path d="M27.8961 47.3608H25.8442V49.4127H27.8961V47.3608Z" fill="#222222"></path><path d="M23.7922 47.3608H21.7403V49.4127H23.7922V47.3608Z" fill="#222222"></path><path d="M42.2597 43.2569H40.2078V45.3089H42.2597V43.2569Z" fill="#222222"></path><path d="M38.1558 43.2569H36.1039V45.3089H38.1558V43.2569Z" fill="#222222"></path><path d="M34.0519 43.2569H32V45.3089H34.0519V43.2569Z" fill="#222222"></path><path d="M29.9481 43.2569H27.8961V45.3089H29.9481V43.2569Z" fill="#222222"></path><path d="M25.8442 43.2569H23.7922V45.3089H25.8442V43.2569Z" fill="#222222"></path><path d="M42.2597 51.4647H40.2078V53.5166H42.2597V51.4647Z" fill="#222222"></path><path d="M38.1558 51.4647H36.1039V53.5166H38.1558V51.4647Z" fill="#222222"></path><path d="M34.0519 51.4647H32V53.5166H34.0519V51.4647Z" fill="#222222"></path><path d="M29.9481 51.4647H27.8961V53.5166H29.9481V51.4647Z" fill="#222222"></path><path d="M25.8442 51.4647H23.7922V53.5166H25.8442V51.4647Z" fill="#222222"></path></g><defs><clipPath id="clip0_614_3014"><rect width="64" height="64" fill="white"></rect></clipPath></defs></svg>