<svg xmlns="http://www.w3.org/2000/svg" width="64" height="64" viewBox="0 0 64 64" fill="none"><g clip-path="url(#clip0_614_2952)"><path d="M20.6452 4.12198V6.37197C20.6452 13.3503 17.1562 19.8639 11.3548 23.7349C9.8372 21.2056 8.85685 18.4083 8.45413 15.5076V15.4975L8.89818 14.3926C10.5086 10.3669 13.12 6.83669 16.506 4.13206C16.5675 4.13206 16.6295 4.12198 16.6915 4.12198H20.6452Z" fill="#CDE4AF"></path><path d="M36.9652 15.4975V15.5076C36.5625 18.4083 35.5822 21.2056 34.0645 23.7349C28.2631 19.8639 24.7742 13.3503 24.7742 6.37197V4.12198H28.7278C28.7898 4.12198 28.8518 4.13206 28.9133 4.13206C32.2994 6.83669 34.9108 10.3669 36.5212 14.3926L36.9652 15.4975Z" fill="#CDE4AF"></path><path d="M10.3947 32.7258C12.7999 33.8921 14.4516 36.3594 14.4516 39.2188C14.4516 43.2137 11.2208 46.4446 7.22581 46.4446V43.8533C7.22581 39.8896 8.34072 36.0393 10.3947 32.7258Z" fill="#CDE4AF"></path><path d="M38.1936 45.4123V53.6704L37.6154 55.6935C35.0348 55.4148 33.0323 53.2263 33.0323 50.5736C33.0323 47.7243 35.3448 45.4123 38.1936 45.4123Z" fill="#CDE4AF"></path><path d="M56.6502 25.7994C57.8579 25.7994 58.8387 26.7797 58.8387 27.9879C58.8387 28.5655 58.6114 29.123 58.1986 29.5363L57.8065 29.9284L58.1986 30.3206C58.6114 30.7334 58.8387 31.2908 58.8387 31.869C58.8387 33.0766 57.8579 34.0575 56.6502 34.0575C56.0721 34.0575 55.5146 33.8301 55.1018 33.4173L53.6774 31.9929H47.4839L46.0595 33.4173C45.6467 33.8301 45.0892 34.0575 44.5111 34.0575C43.3034 34.0575 42.3226 33.0766 42.3226 31.869C42.3226 31.2908 42.5499 30.7334 42.9627 30.3206L43.3548 29.9284L42.9627 29.5363C42.5499 29.123 42.3226 28.5655 42.3226 27.9879C42.3226 26.7797 43.3034 25.7994 44.5111 25.7994C45.0892 25.7994 45.6467 26.0262 46.0595 26.4395L47.4839 27.8639H53.6774L55.1018 26.4395C55.5146 26.0262 56.0721 25.7994 56.6502 25.7994Z" fill="#CDE4AF"></path><path d="M45.4194 47.4768V42.3029C40.4511 40.2303 37.1613 35.3478 37.1613 29.9284C37.1613 22.5292 43.1815 16.5091 50.5806 16.5091C57.9798 16.5091 64 22.5292 64 29.9284C64 36.9975 58.559 42.7994 51.5459 43.2984L45.4194 47.4768Z" fill="#CDE4AF"></path><path d="M29.9355 13.4123H32V15.4768H29.9355V13.4123Z" fill="#222222"></path><path d="M13.4194 13.4123H15.4839V15.4768H13.4194V13.4123Z" fill="#222222"></path><path d="M61.8952 53.3866C61.6991 52.3478 60.4058 51.6976 57.5423 51.194C53.056 50.4052 46.0398 50.4052 41.5544 51.194C40.6069 51.3599 39.8493 51.5458 39.2258 51.7525V43.8483C39.2258 38.2928 37.1749 33.0645 33.4667 28.9788C34.4415 27.5594 35.0358 25.8593 35.0927 24.0247C36.0681 22.3538 36.7939 20.5781 37.313 18.7354C37.7828 19.2742 38.4607 19.6058 39.2082 19.6058C40.2681 19.6058 41.2243 18.937 41.5877 17.9395L45.2117 7.97124C45.3493 7.59221 45.4194 7.19604 45.4194 6.79231C45.4194 5.37295 44.5675 4.11439 43.2495 3.58717L35.0565 0.310958C33.432 -0.339747 31.5126 0.0539018 30.2742 1.29231L28.4688 3.09775L16.9436 3.08969L15.1452 1.2913C13.9068 0.0528936 11.9874 -0.339747 10.3629 0.30995L2.17087 3.58717C0.851815 4.11439 0 5.37195 0 6.79231C0 7.19604 0.0700605 7.59221 0.207661 7.97225L3.83266 17.9405C4.19506 18.937 5.15121 19.6058 6.21119 19.6058C6.95867 19.6058 7.63559 19.2742 8.10635 18.7354C8.62551 20.5781 9.35131 22.3538 10.3266 24.0247C10.3836 25.8593 10.9778 27.5594 11.9526 28.9788C8.24446 33.0645 6.19355 38.2928 6.19355 43.8483V54.4586C6.19355 55.4889 5.62046 56.4148 4.7001 56.8755C3.07409 57.689 2.06452 59.3231 2.06452 61.1396V61.9284C2.06452 63.067 2.99042 63.9929 4.12903 63.9929H15.4839C17.191 63.9929 18.5806 62.6033 18.5806 60.8961V59.8639H26.8387V60.8961C26.8387 62.6033 28.2283 63.9929 29.9355 63.9929H64V60.8961L61.8952 53.3866ZM49.5484 52.6381C53.8538 52.6381 57.4914 53.1633 59.1381 53.6703C57.4914 54.1769 53.8538 54.7026 49.5484 54.7026C45.243 54.7026 41.6053 54.1769 39.9587 53.6703C41.6053 53.1633 45.243 52.6381 49.5484 52.6381ZM31.7339 2.75098C32.3952 2.08918 33.4204 1.87749 34.2893 2.22679L42.4834 5.504C43.0121 5.7157 43.3548 6.22124 43.3548 6.79231C43.3548 6.95461 43.3271 7.11439 43.2712 7.2661L39.6472 17.2338C39.5146 17.5993 38.9194 17.6073 38.7747 17.248L37.4773 14.0045C35.9486 10.1814 33.5227 6.76257 30.4299 4.05491L31.7339 2.75098ZM5.77218 17.2349L2.14819 7.26711C2.09224 7.11439 2.06452 6.95461 2.06452 6.79231C2.06452 6.22124 2.40726 5.7167 2.937 5.504L11.13 2.22679C11.4118 2.11388 11.7067 2.05743 12.0101 2.05743C12.6431 2.05743 13.2389 2.3039 13.6865 2.75098L14.9894 4.0539C11.8957 6.76257 9.47077 10.1814 7.94204 14.0035L6.64567 17.2469C6.5 17.6073 5.90575 17.5978 5.77218 17.2349ZM9.52671 15.6018L9.85887 14.7716C11.3548 11.0307 13.7878 7.7162 16.8962 5.1542L28.5252 5.15622C31.6316 7.71721 34.0645 11.0307 35.5605 14.7716L35.8926 15.6018C35.4909 18.3009 34.5857 20.8599 33.1799 23.2041L33.0323 23.4491V23.7349C33.0323 26.6603 31.2818 29.1799 28.7752 30.3155C28.8508 30.0252 28.9032 29.7258 28.9032 29.4123V28.8961H26.8387V29.4123C26.8387 30.2661 26.1442 30.9607 25.2903 30.9607C24.4365 30.9607 23.7419 30.2661 23.7419 29.4123V26.6613C24.2848 26.4949 24.7888 26.2122 25.2016 25.7994L26.1089 24.8921C26.5796 24.4213 26.8387 23.7958 26.8387 23.13C26.8387 21.756 25.7208 20.6381 24.3468 20.6381H21.0726C19.6986 20.6381 18.5806 21.756 18.5806 23.13C18.5806 23.7958 18.8397 24.4213 19.3105 24.8921L20.2177 25.7994C20.6305 26.2122 21.1346 26.4949 21.6774 26.6613V29.4123C21.6774 30.2661 20.9829 30.9607 20.129 30.9607C19.2752 30.9607 18.5806 30.2661 18.5806 29.4123V28.8961H16.5161V29.4123C16.5161 29.7258 16.5686 30.0252 16.6442 30.3155C14.1376 29.1799 12.3871 26.6603 12.3871 23.7349V23.4491L12.2394 23.2031C10.8337 20.8599 9.92944 18.3009 9.52671 15.6018ZM21.6774 24.3397L20.7702 23.4324C20.6905 23.3528 20.6452 23.2424 20.6452 23.13C20.6452 22.8946 20.8372 22.7026 21.0726 22.7026H24.3468C24.5822 22.7026 24.7742 22.8946 24.7742 23.13C24.7742 23.2424 24.7288 23.3528 24.6492 23.4324L23.7419 24.3397C23.1991 24.8825 22.2203 24.8825 21.6774 24.3397ZM24.5469 33.0252L24.1663 34.9274C24.0277 35.6189 23.4158 36.1219 22.7097 36.1219C22.0035 36.1219 21.3916 35.6189 21.252 34.9274L20.8725 33.0252H24.5469ZM18.5806 57.7994V48.509C18.5806 46.2318 20.4325 44.38 22.7097 44.38C24.9869 44.38 26.8387 46.2318 26.8387 48.509V57.7994H18.5806ZM28.9032 60.8961V48.509C28.9032 45.0932 26.1255 42.3155 22.7097 42.3155C19.2939 42.3155 16.5161 45.0932 16.5161 48.509V60.8961C16.5161 61.4647 16.0524 61.9284 15.4839 61.9284H4.12903V61.1396C4.12903 60.1093 4.70212 59.1834 5.62248 58.7233C7.24849 57.9098 8.25807 56.2757 8.25807 54.4586V43.8483C8.25807 38.8936 10.0575 34.2248 13.314 30.5468C14.7747 31.8987 16.6648 32.7908 18.7581 32.9828L19.2278 35.3321C19.5595 36.9859 21.0232 38.1865 22.7097 38.1865C24.3962 38.1865 25.8599 36.9859 26.1915 35.3321L26.6613 32.9828C28.7545 32.7908 30.6447 31.8987 32.1053 30.5468C35.3619 34.2248 37.1613 38.8936 37.1613 43.8483V53.5257L35.1371 60.6124L35.1144 61.9284H29.9355C29.3669 61.9284 28.9032 61.4647 28.9032 60.8961ZM61.9355 61.9284H37.1613V61.0408L38.7646 55.4284C39.4486 55.7036 40.3654 55.938 41.5534 56.1466C43.7979 56.5408 46.7107 56.7671 49.5484 56.7671C52.3861 56.7671 55.2989 56.5408 57.5423 56.1466C58.7303 55.938 59.6482 55.7036 60.3312 55.4284L61.9355 61.0408V61.9284Z" fill="#222222"></path><path d="M48.5161 58.8317H50.5807V60.8962H48.5161V58.8317Z" fill="#222222"></path><path d="M44.3871 58.8317H46.4516V60.8962H44.3871V58.8317Z" fill="#222222"></path><path d="M52.6452 58.8317H54.7097V60.8962H52.6452V58.8317Z" fill="#222222"></path><path d="M41.2903 27.9889C41.2903 28.6981 41.5176 29.372 41.9385 29.9284C41.5176 30.4849 41.2903 31.1588 41.2903 31.8679C41.2903 33.6447 42.7354 35.0897 44.5121 35.0897C45.373 35.0897 46.182 34.754 46.7903 34.1462L47.9113 33.0252H53.25L54.371 34.1462C54.9793 34.754 55.7883 35.0897 56.6492 35.0897C58.4259 35.0897 59.871 33.6447 59.871 31.8679C59.871 31.1588 59.6437 30.4849 59.2228 29.9284C59.6437 29.372 59.871 28.6981 59.871 27.9889C59.871 26.2122 58.4259 24.7671 56.6492 24.7671C55.7883 24.7671 54.9793 25.1023 54.371 25.7107L53.25 26.8317H47.9113L46.7903 25.7107C46.182 25.1023 45.373 24.7671 44.5121 24.7671C42.7354 24.7671 41.2903 26.2122 41.2903 27.9889ZM47.0564 28.8962H54.1048L55.8306 27.1704C56.0494 26.9521 56.3397 26.8317 56.6492 26.8317C57.2873 26.8317 57.8064 27.3508 57.8064 27.9889C57.8064 28.2984 57.6855 28.5887 57.4677 28.8075L56.3468 29.9284L57.4677 31.0494C57.6855 31.2681 57.8064 31.5585 57.8064 31.8679C57.8064 32.5061 57.2873 33.0252 56.6492 33.0252C56.3397 33.0252 56.0494 32.9042 55.8306 32.6865L54.1048 30.9607H47.0564L45.3306 32.6865C45.1119 32.9042 44.8216 33.0252 44.5121 33.0252C43.874 33.0252 43.3548 32.5061 43.3548 31.8679C43.3548 31.5585 43.4758 31.2681 43.6935 31.0494L44.8145 29.9284L43.6935 28.8075C43.4758 28.5887 43.3548 28.2984 43.3548 27.9889C43.3548 27.3508 43.874 26.8317 44.5121 26.8317C44.8216 26.8317 45.1119 26.9521 45.3306 27.1704L47.0564 28.8962Z" fill="#222222"></path></g><defs><clipPath id="clip0_614_2952"><rect width="64" height="64" fill="white"></rect></clipPath></defs></svg>